<?xml version="1.0" encoding="utf-8"?>
<!-- Generator: Adobe Illustrator 21.0.0, SVG Export Plug-In . SVG Version: 6.00 Build 0)  -->
<svg version="1.1" id="Layer_1" xmlns="http://www.w3.org/2000/svg" xmlns:xlink="http://www.w3.org/1999/xlink" x="0px" y="0px"
	 viewBox="0 0 181.4 181.4" style="enable-background:new 0 0 181.4 181.4;" xml:space="preserve">
<style type="text/css">
	.st0{fill:#7C0B77;}
</style>
<path class="st0" d="M159.6,121.7c-0.5,0-2.9,3.8-5.1,6.7c-1.2,1.7-2.4,3.1-3,3.3c-0.5,0.1-2.5,0.4-5.1,0.6c1.8-1.9,3.5-3.9,5-5.9
	c9.8-12.8,15.7-28.9,15.7-46.3c0-1.9-0.1-3.7-0.2-5.5c-0.5-6.8-1.9-13.3-4-19.5C152.6,25.1,124.2,3.6,90.7,3.6S28.9,25.1,18.5,55
	c-2.1,6.2-3.5,12.7-4,19.5c-0.1,1.8-0.2,3.7-0.2,5.5c0,16.5,5.3,31.9,14.2,44.4c2,2.8,4.2,5.4,6.5,7.9c-2.5-0.3-4.6-0.5-5.1-0.6
	c-0.8-0.2-2.7-2.8-4.5-5.3c-1.7-2.4-3.2-4.7-3.6-4.7c-0.8,0-3.3,5-3.3,6.7c0,0.3,0.3,1,0.8,2c1.9,3.6,6.9,10.9,11.3,14.8
	c1.7,1.5,3.4,2.5,4.7,2.5h19.9c0.8,0.4,1.6,0.8,2.4,1.2c0.1,0-4.6,9.7-4.6,9.7c-1.4,2.9-0.2,6.4,2.7,7.8c0.8,0.4,1.7,0.6,2.6,0.6
	c0.7,0,1.5-0.1,2.1-0.4c0,2.5,1.6,4.9,4.1,5.7c0.6,0.2,1.1,0.2,1.7,0.2c1.3,0,2.5-0.4,3.5-1.1c0.5,2.1,2.3,3.9,4.6,4.3
	c0.4,0.1,0.7,0.1,1.1,0.1c2.2,0,4.3-1.3,5.2-3.3c0.3,2.9,2.8,5.2,5.8,5.2c1.7,0,3.3-0.8,4.4-2c1,1.2,2.6,2,4.4,2
	c3,0,5.4-2.2,5.8-5.1c1,2,3,3.3,5.2,3.3c0.3,0,0.7,0,1.1-0.1c2.3-0.4,4-2.1,4.6-4.3c1,0.7,2.2,1.1,3.5,1.1c0.6,0,1.1-0.1,1.7-0.2
	c2.5-0.8,4.2-3.1,4.1-5.7c0.7,0.3,1.4,0.4,2.1,0.4c0.9,0,1.7-0.2,2.6-0.6c2.9-1.4,4.1-4.9,2.7-7.8l-4.8-9.7c0.9-0.4,1.7-0.8,2.5-1.3
	h19.9c0.8,0,1.7-0.3,2.6-1c4.1-2.5,9.3-9.6,12.1-14.3c1.3-2.1,2.1-3.7,2.1-4.1C163,126.7,160.5,121.7,159.6,121.7z M62,127.8
	c-0.8,0.3-1.7,0.5-2.6,0.8c-1.7,0.5-3.4,0.9-5.1,1.3c0,0,0,0,0,0c-2.9,0.6-5.6,0.9-8.1,0.9c-2,0-3.8-0.2-5.4-0.7
	c-1.5-0.5-4-4.9-5.5-9.9c-1.7-5.4-2.4-11.6-0.1-14.6c1-1.3,3-2.7,5.7-3.9c0.7-0.3,1.5-0.6,2.3-0.9c0.5-0.2,1.1-0.4,1.7-0.6
	c0.6-0.2,1.2-0.4,1.8-0.5c0.7-0.2,1.5-0.4,2.3-0.6c0.8-0.2,1.6-0.4,2.4-0.5h0c0.4-0.1,0.8-0.2,1.1-0.2c0.7-0.1,1.4-0.2,2.1-0.3
	c0.7-0.1,1.4-0.2,2.1-0.2s1.4-0.1,2.2-0.1c0.7,0,1.5,0,2.2,0c0.7,0,1.5,0,2.3,0c0.7,0,1.5,0.1,2.3,0.2c0.8,0.1,1.5,0.1,2.3,0.3
	c0.4,0.1,0.7,0.1,1.1,0.2c0.4,0.1,0.7,0.1,1.1,0.2c0.7,0.2,1.5,0.3,2.2,0.5c2.2,0.6,4.3,1.4,6.4,2.4c1.2,0.6,2.5,6,3.2,10.6
	c0.3,2.4,0.5,4.5,0.3,5.6c0,0.2-0.2,0.4-0.4,0.7c-0.1,0.1-0.2,0.2-0.2,0.3C79.2,120.8,70.9,124.9,62,127.8z M98.1,147
	c-1,0.6-2.1,1-3,1c-0.4,0-0.8-0.1-1.1-0.2c-0.4-0.2-0.8-0.7-1.1-1.2c-1.4-2.4-2.2-5.4-2.2-5.4h0c0,0-0.8,3-2.2,5.4
	c-0.3,0.6-0.7,1-1.1,1.2c-0.3,0.2-0.7,0.2-1.1,0.2c-0.9,0-2-0.4-3-1c-1.5-1-2.8-2.7-2.8-4.8c0-4.2,5.6-18.3,10.2-18.3h0
	c4.6,0,10.2,14.2,10.2,18.3C100.9,144.3,99.7,146,98.1,147z M145.4,122.5c-1.5,4-3.4,7.1-4.7,7.5c-1.6,0.5-3.4,0.7-5.4,0.7
	c-3.9,0-8.4-0.8-12.9-2.1c-1-0.3-1.9-0.5-2.9-0.8c0,0,0,0,0,0c-9.3-2.9-17.9-7.3-19.8-9.5c-0.2-0.3-0.4-0.5-0.4-0.7
	c-0.1-0.6-0.1-1.6,0-2.9c0.4-4.7,2-12.6,3.5-13.4c2-1,4.1-1.8,6.3-2.4c0,0,0,0,0,0c0.7-0.2,1.5-0.4,2.2-0.5c0.7-0.2,1.5-0.3,2.2-0.4
	c0.7-0.1,1.5-0.2,2.3-0.3c0,0,0,0,0,0c0.7-0.1,1.5-0.1,2.2-0.2h0c0.7,0,1.5,0,2.2,0h0c0.7,0,1.5,0,2.2,0c0.7,0,1.4,0.1,2,0.1
	c1.9,0.2,3.7,0.4,5.4,0.7h0c1.3,0.2,2.5,0.5,3.7,0.8c0.4,0.1,0.8,0.2,1.2,0.3c0.4,0.1,0.8,0.2,1.2,0.4c0.8,0.2,1.5,0.5,2.2,0.7
	c0.4,0.2,0.9,0.3,1.3,0.5c3,1.3,5.3,2.8,6.4,4.2C149.1,109,147.7,116.6,145.4,122.5z"/>
</svg>
